<?xml version="1.0" encoding="UTF-8"?>
<svg id="Layer_1" data-name="Layer 1" xmlns="http://www.w3.org/2000/svg" viewBox="0 0 617.69 851.73">
  <defs>
    <style>
      .cls-1 {
        fill: #ef5541;
      }
    </style>
  </defs>
  <path class="cls-1" d="M587.6,404.9c-.18-.7-.35-1.22-.87-1.91-14.61-30.44-34.09-58.09-57.4-82.1-29.74-26.09-66.96-44.18-109.06-50.09-79.21-11.11-132.54,59.14-154.24,152.54-24.79-70.42-29.87-149.23-20.33-215.8,11.37-79.62,42.66-126.53,92.92-139.45,18.5-4.75,29.65-23.61,24.9-42.1-4.75-18.5-23.55-29.62-42.09-24.9-54.97,14.14-124.6,59.72-144.2,196.65-11.48,80.34,7.22,164.79,43.41,243.7-100.65-16.29-205.45,19.31-218.5,111.82-4,27.66-2.26,54.96,4.18,80.53,8.35,26.44,20.18,51.14,34.96,73.92,55.48,86.62,152.71,144.02,263.34,144.02,172.89,0,313.08-140.19,313.08-313.08,0-47.83-10.78-93.23-30.09-133.75Z"/>
</svg>