<?xml version="1.0" encoding="UTF-8"?>
<svg id="Layer_1" data-name="Layer 1" xmlns="http://www.w3.org/2000/svg" xmlns:xlink="http://www.w3.org/1999/xlink" viewBox="0 0 2955.73 1663.03">
  <defs>
    <style>
      .cls-1 {
        fill: url(#linear-gradient);
        stroke: url(#linear-gradient-2);
        stroke-miterlimit: 10;
      }
    </style>
    <linearGradient id="linear-gradient" x1="-38.51" y1="831.51" x2="2998.11" y2="831.51" gradientUnits="userSpaceOnUse">
      <stop offset="0" stop-color="#ababff"/>
      <stop offset=".43" stop-color="#d0dd57"/>
      <stop offset="1" stop-color="#ef5541"/>
    </linearGradient>
    <linearGradient id="linear-gradient-2" x1="0" y1="831.51" x2="2955.73" y2="831.51" gradientUnits="userSpaceOnUse">
      <stop offset="0" stop-color="#ababff"/>
      <stop offset=".43" stop-color="#d0dd57"/>
      <stop offset="1" stop-color="#ef5541"/>
    </linearGradient>
  </defs>
  <path class="cls-1" d="M387.88,533.58c-7.52,10.34-10.34,19.74-10.34,32.91,0,32.91,26.33,57.36,63.94,57.36,56.41,0,101.55-48.89,101.55-107.19,0-70.52-67.7-123.17-161.72-123.17-170.18,0-326.26,163.6-326.26,341.3,0,126.93,83.68,214.37,198.39,214.37,49.83,0,99.67-16.92,130.69-43.25,34.79-30.09,61.12,17.87,24.45,47.95-35.73,29.15-97.78,47.95-157.96,47.95C105.81,1001.82.5,892.75.5,737.61c0-207.79,180.53-396.78,379.85-396.78,125.99,0,217.19,74.28,217.19,175.82,0,88.38-70.52,160.78-157.02,160.78-65.82,0-113.77-44.19-113.77-106.25,0-17.86,4.7-45.13,21.63-62.06,22.56-22.56,58.3,0,39.49,24.45ZM2455.02,701.36l-77.1,168.3c-10.34,21.63-19.75,41.37-19.75,65.81,0,46.07,38.55,68.64,78.04,68.64,74.28,0,116.59-77.1,138.21-124.11,15.04-34.79-33.85-45.13-49.83-10.34-19.75,41.37-46.07,84.62-84.62,84.62-19.74,0-26.33-10.34-26.33-24.45,0-9.4,2.82-20.69,7.52-30.09l78.98-178.64c19.74-45.13-30.09-51.71-45.13-19.74ZM2529.3,615.8c20.68,0,40.43-15.98,44.19-37.61,4.7-22.57-12.22-42.31-35.73-42.31-19.74,0-39.49,16.92-43.25,38.55-3.76,21.63,10.34,41.37,34.79,41.37ZM2243.47,393.91c-137.27,0-251.98,95.9-251.98,220.95,0,33.85,7.52,69.58,28.21,91.2,21.63,22.56,55.48-4.7,42.31-30.09-11.28-18.81-19.74-36.67-19.74-65.82,0-91.2,86.5-168.3,195.57-168.3,89.32,0,149.5,52.65,149.5,125.99,0,87.44-75.22,168.3-146.68,168.3-14.1,0-26.33-3.76-36.67-8.46l92.14-200.27c16.92-35.73-31.97-50.77-46.07-20.69l-210.61,458.83c-15.04,33.85,31.97,51.71,46.07,20.69l97.78-212.49c14.1,7.52,35.73,13.16,55.48,13.16,100.6,0,200.27-103.43,200.27-221.89,0-101.55-80.86-171.12-195.57-171.12ZM2955.19,700.06c-.49,76.13-13.03,152.1-37.15,224.32-12.66,35.89-27.8,71.15-44.68,104.89-17.65,33.68-37.89,66.14-60.96,96.56-46.18,60.79-103.42,113.42-168.07,153.9-98.07,58.48-207.47,93.58-319.87,110.2-37.32,4.93-74.84,7.62-112.33,8.59-75.02,1.9-149.88-3.79-223.71-14.77-73.82-11.21-146.71-27.55-218.17-48.57-56.58-16.65-112.28-36.13-167.01-58-5.76.02-10.84,1.67-14.24,7.42-137.6,232.8-357.21,377.95-584.35,377.95s-390.2-134.78-390.2-305.37,165.88-308.2,419.41-308.2c184.73,0,360.04,69.75,529.69,152.69,6.6,3.77,13.19.94,16.97-5.66,2.83-6.6,5.66-12.25,8.48-17.91l90.48-193.21c-13.19,9.42-32.04,15.08-44.3,15.08-28.47,0-50.03-12.19-61.48-33.11-21.54,21.56-48.55,37.28-82.09,37.28-39.49,0-72.4-22.56-72.4-66.76,0-17.87,5.64-40.43,14.1-58.3l52.65-111.89c5.64-11.28,8.46-23.51,8.46-31.03,0-25.39-32.91-29.15-45.13-44.19l-85.54,188.01c-21.64,47.05-63.95,124.15-138.23,124.15-39.49,0-72.4-22.56-72.4-66.76,0-17.87,5.64-40.43,14.1-58.3l47.01-98.72c6.58-13.16,14.1-30.09,14.1-50.77s-15.98-36.67-38.55-50.77c-41.37,140.09-118.47,325.32-257.62,325.32-48.41,0-90.88-16.82-110.57-48.64-23.05,27.18-53.34,48.64-92.52,48.64s-73.34-21.63-73.34-65.82c0-18.81,5.64-41.37,14.1-59.23l50.77-110.01c6.58-13.16,8.46-24.45,8.46-31.97,0-13.16-9.4-21.62-25.38-21.62-37.61,0-66.76,39.49-77.1,62.05l-46.07,102.49-43.25,93.08c-21.63,46.07-67.7,27.27-48.89-13.16l41.37-90.26,162.14-376.48c15.04-31.97,66.76-24.45,45.13,19.74l-86.92,195.95h1.88c14.1-24.45,40.43-42.31,68.64-42.31,34.79,0,61.12,26.33,61.12,62.05,0,16.92-6.58,43.25-15.99,63l-49.83,108.13c-6.58,14.1-9.4,26.33-9.4,33.85,0,15.04,11.28,20.68,26.33,20.68,39.49,0,64.88-43.25,84.62-84.62.69-1.49,1.43-2.89,2.23-4.21,3.01-8.67,6.68-17.69,10.93-26.82l36.67-78.98c15.04-30.09,44.19-93.08,113.77-93.08,53.59,0,71.46,33.85,71.46,67.7,0,15.98-4.7,33.85-9.4,46.07-23.51,61.11-63,87.44-107.19,87.44-26.33,0-44.19-12.22-52.65-23.5l-15.97,35.7c-.05.11-.09.2-.13.28-6.44,13.9-4.59,18.57-4.59,21.37,0,28.21,28.21,53.59,69.58,53.59,122.23,0,182.4-179.58,215.31-298.99-47.01-22.57-95.9-49.83-96.85-110.01,0-46.07,33.85-71.46,71.46-71.46,57.35,0,85.56,55.47,85.56,107.19,0,9.4-1.88,27.27-5.64,47.01,41.37,24.45,79.92,53.59,79.92,99.66,0,25.39-9.4,47.01-18.8,65.82l-49.83,105.31c-4.7,9.4-8.46,21.63-8.46,31.97,0,13.16,6.58,22.56,24.45,22.56,39.48,0,64.86-43.22,84.6-84.58.02-.04,124.13-268.01,124.13-268.01,15.04-31.97,67.7-25.39,46.07,19.74-31.03,65.82,63.94,27.27,63.94,108.13,0,14.1-8.46,42.31-14.1,54.53l-54.53,115.65c-4.7,9.4-8.46,21.63-8.46,31.97,0,13.16,6.58,22.56,24.44,22.56,39.49,0,64.88-43.25,84.62-84.62,1.19-2.58,2.56-4.91,4.07-7l76.57-166.2c15.08-32.04,65.98-25.45,45.24,19.79l-82,180.02c-4.71,11.31-8.48,23.56-8.48,31.1,0,15.08,13.2,22.62,29.22,22.62,45.24,0,72.57-56.55,81.06-75.4l82-178.13c15.08-32.04,65.98-25.45,45.24,19.79l-105.88,233.77c2.24-.62,4.64-.97,7.2-.97,39.59,0,65.03-43.36,84.83-84.83,16.02-34.87,65.03-24.5,49.95,10.37-21.68,47.13-64.09,124.41-138.55,124.41-10.63,0-17.31-4.64-20.6-11.09l-94.67,209.02c-2.83,7.54-6.6,14.14-10.37,21.68-1.05,2.44-1.43,4.47-1.36,6.23,53.1,22.18,107.27,41.79,162.28,58.54,69.04,20.97,139.36,37.87,210.54,48.8,71.14,10.9,143.06,16.67,214.71,15.17,71.6-1.45,143-9.86,211.84-27.69,222.02-64.46,365.93-193.96,445.95-411.56,21.81-67.06,32.92-137.7,32.81-208.22-.13-70.54-11.7-140.91-34.15-207.38-22.51-66.46-56.63-128.69-100.32-183.02-43.73-54.35-97.09-100.59-156.62-137-29.71-18.31-61.06-34.01-93.31-47.63-16.15-6.62-32.7-13.04-49.03-18.45-16.45-5.42-33.15-10.11-50.02-14.11-67.52-16.04-137.81-24.67-207.13-19.04-69.32,5.67-137.83,21.62-201.79,47.73-63.89,26.06-123.57,61.96-173.54,107.58-49.97,45.52-91.34,100.08-115.16,161.6-12.71,32.82-37.61,39.65-61.76,29.69-24.15-9.96-35.65-37.61-25.69-61.76.18-.44.37-.87.56-1.29l.15-.33c16.66-36.79,37.63-71.46,62-103.2,24.36-31.76,52.09-60.59,82.14-86.28,60.1-51.5,129.2-90.4,201.81-117.66,36.32-13.67,73.64-24.32,111.44-32.22,37.8-7.92,76.12-13.13,114.62-15.32,76.95-4.44,154.66,2.47,229.47,22.08,18.69,4.89,37.2,10.56,55.43,17.05,18.32,6.58,35.85,13.77,53.46,21.44,34.97,15.63,69.02,33.6,101.32,54.44,64.72,41.46,122.74,93.89,169.7,154.88,47.07,60.93,82.64,130.24,106.19,202.99,23.44,72.85,34.64,149.27,33.84,225.39ZM901.15,805.73c7.52,8.46,20.68,12.22,33.85,12.22,20.68,0,39.49-15.98,54.53-45.13,4.7-9.4,10.34-22.56,10.34-34.79s-4.7-24.45-26.33-24.45c-17.86,0-35.73,14.1-54.54,53.59l-17.86,38.55ZM1161.59,581.95c0-27.27-13.16-58.3-37.61-58.3-12.22,0-22.57,6.58-22.57,21.63,0,23.51,26.33,41.37,58.3,60.18,1.88-7.52,1.88-14.1,1.88-23.51ZM1540.93,1245c-161.17-81.06-327.99-148.91-505.18-148.91-228.09,0-372.29,119.7-372.29,261.07s149.86,258.25,335.53,258.25c221.49,0,421.3-142.32,546.65-353.44,3.77-6.6,1.88-14.14-4.71-16.97Z"/>
</svg>